<svg width="1440" height="84" viewBox="0 0 1440 84" fill="none" xmlns="http://www.w3.org/2000/svg">
<rect width="1440" height="84" fill="#F5F7FA"/>
<g clip-path="url(#clip0_213_957)">
<path d="M426.778 48V36.3636H428.534V41.4205H434.335V36.3636H436.097V48H434.335V42.9261H428.534V48H426.778ZM442.193 48.1761C441.375 48.1761 440.661 47.9886 440.051 47.6136C439.441 47.2386 438.968 46.714 438.631 46.0398C438.294 45.3655 438.125 44.5777 438.125 43.6761C438.125 42.7708 438.294 41.9792 438.631 41.3011C438.968 40.6231 439.441 40.0966 440.051 39.7216C440.661 39.3466 441.375 39.1591 442.193 39.1591C443.011 39.1591 443.725 39.3466 444.335 39.7216C444.945 40.0966 445.419 40.6231 445.756 41.3011C446.093 41.9792 446.261 42.7708 446.261 43.6761C446.261 44.5777 446.093 45.3655 445.756 46.0398C445.419 46.714 444.945 47.2386 444.335 47.6136C443.725 47.9886 443.011 48.1761 442.193 48.1761ZM442.199 46.75C442.729 46.75 443.169 46.6098 443.517 46.3295C443.866 46.0492 444.123 45.6761 444.29 45.2102C444.46 44.7443 444.545 44.2311 444.545 43.6705C444.545 43.1136 444.46 42.6023 444.29 42.1364C444.123 41.6667 443.866 41.2898 443.517 41.0057C443.169 40.7216 442.729 40.5795 442.199 40.5795C441.665 40.5795 441.222 40.7216 440.869 41.0057C440.521 41.2898 440.261 41.6667 440.091 42.1364C439.924 42.6023 439.841 43.1136 439.841 43.6705C439.841 44.2311 439.924 44.7443 440.091 45.2102C440.261 45.6761 440.521 46.0492 440.869 46.3295C441.222 46.6098 441.665 46.75 442.199 46.75ZM448.158 48V39.2727H449.788V40.6932H449.896C450.078 40.2121 450.375 39.8371 450.788 39.5682C451.201 39.2955 451.696 39.1591 452.271 39.1591C452.855 39.1591 453.343 39.2955 453.737 39.5682C454.135 39.8409 454.429 40.2159 454.618 40.6932H454.709C454.917 40.2273 455.249 39.8561 455.703 39.5795C456.158 39.2992 456.699 39.1591 457.328 39.1591C458.12 39.1591 458.766 39.4072 459.266 39.9034C459.769 40.3996 460.021 41.1477 460.021 42.1477V48H458.322V42.3068C458.322 41.7159 458.161 41.2879 457.839 41.0227C457.518 40.7576 457.133 40.625 456.686 40.625C456.133 40.625 455.703 40.7955 455.396 41.1364C455.089 41.4735 454.936 41.9072 454.936 42.4375V48H453.243V42.1989C453.243 41.7254 453.095 41.3447 452.8 41.0568C452.504 40.7689 452.12 40.625 451.646 40.625C451.324 40.625 451.027 40.7102 450.754 40.8807C450.485 41.0473 450.268 41.2803 450.101 41.5795C449.938 41.8788 449.857 42.2254 449.857 42.6193V48H448.158ZM466.06 48.1761C465.2 48.1761 464.459 47.9924 463.838 47.625C463.221 47.2538 462.743 46.733 462.406 46.0625C462.073 45.3883 461.906 44.5985 461.906 43.6932C461.906 42.7992 462.073 42.0114 462.406 41.3295C462.743 40.6477 463.213 40.1155 463.815 39.733C464.421 39.3504 465.13 39.1591 465.94 39.1591C466.433 39.1591 466.91 39.2405 467.372 39.4034C467.834 39.5663 468.249 39.822 468.616 40.1705C468.984 40.5189 469.274 40.9716 469.486 41.5284C469.698 42.0814 469.804 42.7538 469.804 43.5455V44.1477H462.866V42.875H468.139C468.139 42.428 468.048 42.0322 467.866 41.6875C467.685 41.339 467.429 41.0644 467.099 40.8636C466.774 40.6629 466.391 40.5625 465.952 40.5625C465.474 40.5625 465.058 40.6799 464.702 40.9148C464.349 41.1458 464.077 41.4489 463.884 41.8239C463.694 42.1951 463.599 42.5985 463.599 43.0341V44.0284C463.599 44.6117 463.702 45.108 463.906 45.517C464.115 45.9261 464.404 46.2386 464.776 46.4545C465.147 46.6667 465.58 46.7727 466.077 46.7727C466.399 46.7727 466.692 46.7273 466.957 46.6364C467.223 46.5417 467.452 46.4015 467.645 46.2159C467.838 46.0303 467.986 45.8011 468.088 45.5284L469.696 45.8182C469.567 46.2917 469.336 46.7064 469.003 47.0625C468.673 47.4148 468.259 47.6894 467.759 47.8864C467.262 48.0795 466.696 48.1761 466.06 48.1761Z" fill="#18191F"/>
<path d="M529.273 39.2727C529.205 38.697 528.928 38.25 528.443 37.9318C527.958 37.6136 527.364 37.4545 526.659 37.4545C526.144 37.4545 525.693 37.5379 525.307 37.7045C524.924 37.8712 524.625 38.1004 524.409 38.392C524.197 38.6837 524.091 39.0152 524.091 39.3864C524.091 39.697 524.165 39.964 524.312 40.1875C524.464 40.4072 524.657 40.5909 524.892 40.7386C525.127 40.8826 525.373 41.0019 525.631 41.0966C525.888 41.1875 526.125 41.2614 526.341 41.3182L527.523 41.6364C527.826 41.7159 528.163 41.8258 528.534 41.9659C528.909 42.1061 529.267 42.2973 529.608 42.5398C529.953 42.7784 530.237 43.0852 530.46 43.4602C530.684 43.8352 530.795 44.2955 530.795 44.8409C530.795 45.4697 530.631 46.0379 530.301 46.5455C529.975 47.053 529.498 47.4564 528.869 47.7557C528.244 48.0549 527.485 48.2045 526.591 48.2045C525.758 48.2045 525.036 48.0701 524.426 47.8011C523.82 47.5322 523.343 47.1572 522.994 46.6761C522.65 46.1951 522.455 45.6364 522.409 45H523.864C523.902 45.4394 524.049 45.803 524.307 46.0909C524.568 46.375 524.898 46.5871 525.295 46.7273C525.697 46.8636 526.129 46.9318 526.591 46.9318C527.129 46.9318 527.612 46.8447 528.04 46.6705C528.468 46.4924 528.807 46.2462 529.057 45.9318C529.307 45.6136 529.432 45.2424 529.432 44.8182C529.432 44.4318 529.324 44.1174 529.108 43.875C528.892 43.6326 528.608 43.4356 528.256 43.2841C527.903 43.1326 527.523 43 527.114 42.8864L525.682 42.4773C524.773 42.2159 524.053 41.8428 523.523 41.358C522.992 40.8731 522.727 40.2386 522.727 39.4545C522.727 38.803 522.903 38.2348 523.256 37.75C523.612 37.2614 524.089 36.8826 524.688 36.6136C525.29 36.3409 525.962 36.2045 526.705 36.2045C527.455 36.2045 528.121 36.339 528.705 36.608C529.288 36.8731 529.75 37.2367 530.091 37.6989C530.436 38.161 530.617 38.6856 530.636 39.2727H529.273ZM536.589 48.1818C535.749 48.1818 535.023 47.9962 534.413 47.625C533.807 47.25 533.339 46.7273 533.01 46.0568C532.684 45.3826 532.521 44.5985 532.521 43.7045C532.521 42.8106 532.684 42.0227 533.01 41.3409C533.339 40.6553 533.798 40.1212 534.385 39.7386C534.976 39.3523 535.665 39.1591 536.453 39.1591C536.908 39.1591 537.357 39.2348 537.8 39.3864C538.243 39.5379 538.646 39.7841 539.01 40.125C539.374 40.4621 539.663 40.9091 539.879 41.4659C540.095 42.0227 540.203 42.7083 540.203 43.5227V44.0909H533.476V42.9318H538.839C538.839 42.4394 538.741 42 538.544 41.6136C538.351 41.2273 538.074 40.9223 537.714 40.6989C537.358 40.4754 536.938 40.3636 536.453 40.3636C535.919 40.3636 535.457 40.4962 535.067 40.7614C534.68 41.0227 534.383 41.3636 534.175 41.7841C533.966 42.2045 533.862 42.6553 533.862 43.1364V43.9091C533.862 44.5682 533.976 45.1269 534.203 45.5852C534.434 46.0398 534.754 46.3864 535.163 46.625C535.572 46.8598 536.048 46.9773 536.589 46.9773C536.942 46.9773 537.26 46.928 537.544 46.8295C537.832 46.7273 538.08 46.5758 538.288 46.375C538.497 46.1705 538.658 45.9167 538.771 45.6136L540.067 45.9773C539.93 46.4167 539.701 46.803 539.379 47.1364C539.057 47.4659 538.66 47.7235 538.186 47.9091C537.713 48.0909 537.18 48.1818 536.589 48.1818ZM542.243 48V39.2727H543.538V40.5909H543.629C543.788 40.1591 544.076 39.8087 544.493 39.5398C544.91 39.2708 545.379 39.1364 545.902 39.1364C546 39.1364 546.124 39.1383 546.271 39.142C546.419 39.1458 546.531 39.1515 546.607 39.1591V40.5227C546.561 40.5114 546.457 40.4943 546.294 40.4716C546.135 40.4451 545.966 40.4318 545.788 40.4318C545.364 40.4318 544.985 40.5208 544.652 40.6989C544.322 40.8731 544.061 41.1155 543.868 41.4261C543.679 41.733 543.584 42.0833 543.584 42.4773V48H542.243ZM555.598 39.2727L552.371 48H551.007L547.78 39.2727H549.234L551.643 46.2273H551.734L554.143 39.2727H555.598ZM557.368 48V39.2727H558.709V48H557.368ZM558.05 37.8182C557.788 37.8182 557.563 37.7292 557.374 37.5511C557.188 37.3731 557.095 37.1591 557.095 36.9091C557.095 36.6591 557.188 36.4451 557.374 36.267C557.563 36.089 557.788 36 558.05 36C558.311 36 558.535 36.089 558.72 36.267C558.91 36.4451 559.004 36.6591 559.004 36.9091C559.004 37.1591 558.91 37.3731 558.72 37.5511C558.535 37.7292 558.311 37.8182 558.05 37.8182ZM564.71 48.1818C563.892 48.1818 563.188 47.9886 562.597 47.6023C562.006 47.2159 561.551 46.6837 561.233 46.0057C560.915 45.3277 560.756 44.553 560.756 43.6818C560.756 42.7955 560.919 42.0133 561.244 41.3352C561.574 40.6534 562.032 40.1212 562.619 39.7386C563.21 39.3523 563.9 39.1591 564.688 39.1591C565.301 39.1591 565.854 39.2727 566.347 39.5C566.839 39.7273 567.242 40.0455 567.557 40.4545C567.871 40.8636 568.066 41.3409 568.142 41.8864H566.801C566.699 41.4886 566.472 41.1364 566.119 40.8295C565.771 40.5189 565.301 40.3636 564.71 40.3636C564.188 40.3636 563.729 40.5 563.335 40.7727C562.945 41.0417 562.64 41.4223 562.42 41.9148C562.205 42.4034 562.097 42.9773 562.097 43.6364C562.097 44.3106 562.203 44.8977 562.415 45.3977C562.631 45.8977 562.934 46.286 563.324 46.5625C563.718 46.839 564.18 46.9773 564.71 46.9773C565.059 46.9773 565.375 46.9167 565.659 46.7955C565.943 46.6742 566.184 46.5 566.381 46.2727C566.578 46.0455 566.718 45.7727 566.801 45.4545H568.142C568.066 45.9697 567.879 46.4337 567.58 46.8466C567.284 47.2557 566.892 47.5814 566.403 47.8239C565.919 48.0625 565.354 48.1818 564.71 48.1818ZM573.761 48.1818C572.92 48.1818 572.195 47.9962 571.585 47.625C570.979 47.25 570.511 46.7273 570.182 46.0568C569.856 45.3826 569.693 44.5985 569.693 43.7045C569.693 42.8106 569.856 42.0227 570.182 41.3409C570.511 40.6553 570.97 40.1212 571.557 39.7386C572.148 39.3523 572.837 39.1591 573.625 39.1591C574.08 39.1591 574.528 39.2348 574.972 39.3864C575.415 39.5379 575.818 39.7841 576.182 40.125C576.545 40.4621 576.835 40.9091 577.051 41.4659C577.267 42.0227 577.375 42.7083 577.375 43.5227V44.0909H570.648V42.9318H576.011C576.011 42.4394 575.913 42 575.716 41.6136C575.523 41.2273 575.246 40.9223 574.886 40.6989C574.53 40.4754 574.11 40.3636 573.625 40.3636C573.091 40.3636 572.629 40.4962 572.239 40.7614C571.852 41.0227 571.555 41.3636 571.347 41.7841C571.138 42.2045 571.034 42.6553 571.034 43.1364V43.9091C571.034 44.5682 571.148 45.1269 571.375 45.5852C571.606 46.0398 571.926 46.3864 572.335 46.625C572.744 46.8598 573.22 46.9773 573.761 46.9773C574.114 46.9773 574.432 46.928 574.716 46.8295C575.004 46.7273 575.252 46.5758 575.46 46.375C575.669 46.1705 575.83 45.9167 575.943 45.6136L577.239 45.9773C577.102 46.4167 576.873 46.803 576.551 47.1364C576.229 47.4659 575.831 47.7235 575.358 47.9091C574.884 48.0909 574.352 48.1818 573.761 48.1818Z" fill="#18191F"/>
<path d="M629.909 48V36.3636H636.886V37.6136H631.318V41.5455H636.364V42.7955H631.318V48H629.909ZM642.136 48.1818C641.295 48.1818 640.57 47.9962 639.96 47.625C639.354 47.25 638.886 46.7273 638.557 46.0568C638.231 45.3826 638.068 44.5985 638.068 43.7045C638.068 42.8106 638.231 42.0227 638.557 41.3409C638.886 40.6553 639.345 40.1212 639.932 39.7386C640.523 39.3523 641.212 39.1591 642 39.1591C642.455 39.1591 642.903 39.2348 643.347 39.3864C643.79 39.5379 644.193 39.7841 644.557 40.125C644.92 40.4621 645.21 40.9091 645.426 41.4659C645.642 42.0227 645.75 42.7083 645.75 43.5227V44.0909H639.023V42.9318H644.386C644.386 42.4394 644.288 42 644.091 41.6136C643.898 41.2273 643.621 40.9223 643.261 40.6989C642.905 40.4754 642.485 40.3636 642 40.3636C641.466 40.3636 641.004 40.4962 640.614 40.7614C640.227 41.0227 639.93 41.3636 639.722 41.7841C639.513 42.2045 639.409 42.6553 639.409 43.1364V43.9091C639.409 44.5682 639.523 45.1269 639.75 45.5852C639.981 46.0398 640.301 46.3864 640.71 46.625C641.119 46.8598 641.595 46.9773 642.136 46.9773C642.489 46.9773 642.807 46.928 643.091 46.8295C643.379 46.7273 643.627 46.5758 643.835 46.375C644.044 46.1705 644.205 45.9167 644.318 45.6136L645.614 45.9773C645.477 46.4167 645.248 46.803 644.926 47.1364C644.604 47.4659 644.206 47.7235 643.733 47.9091C643.259 48.0909 642.727 48.1818 642.136 48.1818ZM650.358 48.2045C649.805 48.2045 649.303 48.1004 648.852 47.892C648.402 47.6799 648.044 47.375 647.778 46.9773C647.513 46.5758 647.381 46.0909 647.381 45.5227C647.381 45.0227 647.479 44.6174 647.676 44.3068C647.873 43.9924 648.136 43.7462 648.466 43.5682C648.795 43.3902 649.159 43.2576 649.557 43.1705C649.958 43.0795 650.362 43.0076 650.767 42.9545C651.297 42.8864 651.727 42.8352 652.057 42.8011C652.39 42.7633 652.633 42.7008 652.784 42.6136C652.939 42.5265 653.017 42.375 653.017 42.1591V42.1136C653.017 41.553 652.864 41.1174 652.557 40.8068C652.254 40.4962 651.794 40.3409 651.176 40.3409C650.536 40.3409 650.034 40.4811 649.67 40.7614C649.307 41.0417 649.051 41.3409 648.903 41.6591L647.631 41.2045C647.858 40.6742 648.161 40.2614 648.54 39.9659C648.922 39.6667 649.339 39.4583 649.79 39.3409C650.244 39.2197 650.691 39.1591 651.131 39.1591C651.411 39.1591 651.733 39.1932 652.097 39.2614C652.464 39.3258 652.818 39.4602 653.159 39.6648C653.504 39.8693 653.79 40.178 654.017 40.5909C654.244 41.0038 654.358 41.5568 654.358 42.25V48H653.017V46.8182H652.949C652.858 47.0076 652.706 47.2102 652.494 47.4261C652.282 47.642 652 47.8258 651.648 47.9773C651.295 48.1288 650.866 48.2045 650.358 48.2045ZM650.562 47C651.093 47 651.54 46.8958 651.903 46.6875C652.271 46.4792 652.547 46.2102 652.733 45.8807C652.922 45.5511 653.017 45.2045 653.017 44.8409V43.6136C652.96 43.6818 652.835 43.7443 652.642 43.8011C652.453 43.8542 652.233 43.9015 651.983 43.9432C651.737 43.9811 651.496 44.0152 651.261 44.0455C651.03 44.072 650.843 44.0947 650.699 44.1136C650.35 44.1591 650.025 44.233 649.722 44.3352C649.422 44.4337 649.18 44.5833 648.994 44.7841C648.813 44.9811 648.722 45.25 648.722 45.5909C648.722 46.0568 648.894 46.4091 649.239 46.6477C649.587 46.8826 650.028 47 650.562 47ZM660.601 39.2727V40.4091H656.078V39.2727H660.601ZM657.396 37.1818H658.737V45.5C658.737 45.8788 658.792 46.1629 658.902 46.3523C659.016 46.5379 659.16 46.6629 659.334 46.7273C659.512 46.7879 659.699 46.8182 659.896 46.8182C660.044 46.8182 660.165 46.8106 660.26 46.7955C660.355 46.7765 660.43 46.7614 660.487 46.75L660.76 47.9545C660.669 47.9886 660.542 48.0227 660.379 48.0568C660.216 48.0947 660.01 48.1136 659.76 48.1136C659.381 48.1136 659.01 48.0322 658.646 47.8693C658.286 47.7064 657.987 47.4583 657.749 47.125C657.514 46.7917 657.396 46.3712 657.396 45.8636V37.1818ZM668.118 44.4318V39.2727H669.459V48H668.118V46.5227H668.027C667.822 46.9659 667.504 47.3428 667.072 47.6534C666.641 47.9602 666.095 48.1136 665.436 48.1136C664.891 48.1136 664.406 47.9943 663.982 47.7557C663.557 47.5133 663.224 47.1496 662.982 46.6648C662.739 46.1761 662.618 45.5606 662.618 44.8182V39.2727H663.959V44.7273C663.959 45.3636 664.137 45.8712 664.493 46.25C664.853 46.6288 665.311 46.8182 665.868 46.8182C666.201 46.8182 666.54 46.733 666.885 46.5625C667.233 46.392 667.525 46.1307 667.76 45.7784C667.999 45.4261 668.118 44.9773 668.118 44.4318ZM671.915 48V39.2727H673.21V40.5909H673.301C673.46 40.1591 673.748 39.8087 674.165 39.5398C674.581 39.2708 675.051 39.1364 675.574 39.1364C675.672 39.1364 675.795 39.1383 675.943 39.142C676.091 39.1458 676.203 39.1515 676.278 39.1591V40.5227C676.233 40.5114 676.129 40.4943 675.966 40.4716C675.807 40.4451 675.638 40.4318 675.46 40.4318C675.036 40.4318 674.657 40.5208 674.324 40.6989C673.994 40.8731 673.733 41.1155 673.54 41.4261C673.35 41.733 673.256 42.0833 673.256 42.4773V48H671.915ZM681.261 48.1818C680.42 48.1818 679.695 47.9962 679.085 47.625C678.479 47.25 678.011 46.7273 677.682 46.0568C677.356 45.3826 677.193 44.5985 677.193 43.7045C677.193 42.8106 677.356 42.0227 677.682 41.3409C678.011 40.6553 678.47 40.1212 679.057 39.7386C679.648 39.3523 680.337 39.1591 681.125 39.1591C681.58 39.1591 682.028 39.2348 682.472 39.3864C682.915 39.5379 683.318 39.7841 683.682 40.125C684.045 40.4621 684.335 40.9091 684.551 41.4659C684.767 42.0227 684.875 42.7083 684.875 43.5227V44.0909H678.148V42.9318H683.511C683.511 42.4394 683.413 42 683.216 41.6136C683.023 41.2273 682.746 40.9223 682.386 40.6989C682.03 40.4754 681.61 40.3636 681.125 40.3636C680.591 40.3636 680.129 40.4962 679.739 40.7614C679.352 41.0227 679.055 41.3636 678.847 41.7841C678.638 42.2045 678.534 42.6553 678.534 43.1364V43.9091C678.534 44.5682 678.648 45.1269 678.875 45.5852C679.106 46.0398 679.426 46.3864 679.835 46.625C680.244 46.8598 680.72 46.9773 681.261 46.9773C681.614 46.9773 681.932 46.928 682.216 46.8295C682.504 46.7273 682.752 46.5758 682.96 46.375C683.169 46.1705 683.33 45.9167 683.443 45.6136L684.739 45.9773C684.602 46.4167 684.373 46.803 684.051 47.1364C683.729 47.4659 683.331 47.7235 682.858 47.9091C682.384 48.0909 681.852 48.1818 681.261 48.1818Z" fill="#18191F"/>
<path d="M737.909 48V36.3636H741.841C742.754 36.3636 743.5 36.5284 744.08 36.858C744.663 37.1837 745.095 37.625 745.375 38.1818C745.655 38.7386 745.795 39.3598 745.795 40.0455C745.795 40.7311 745.655 41.3542 745.375 41.9148C745.098 42.4754 744.67 42.9223 744.091 43.2557C743.511 43.5852 742.769 43.75 741.864 43.75H739.045V42.5H741.818C742.443 42.5 742.945 42.392 743.324 42.1761C743.703 41.9602 743.977 41.6686 744.148 41.3011C744.322 40.9299 744.409 40.5114 744.409 40.0455C744.409 39.5795 744.322 39.1629 744.148 38.7955C743.977 38.428 743.701 38.1402 743.318 37.9318C742.936 37.7197 742.428 37.6136 741.795 37.6136H739.318V48H737.909ZM747.884 48V39.2727H749.179V40.5909H749.27C749.429 40.1591 749.717 39.8087 750.134 39.5398C750.55 39.2708 751.02 39.1364 751.543 39.1364C751.641 39.1364 751.764 39.1383 751.912 39.142C752.06 39.1458 752.171 39.1515 752.247 39.1591V40.5227C752.202 40.5114 752.098 40.4943 751.935 40.4716C751.776 40.4451 751.607 40.4318 751.429 40.4318C751.005 40.4318 750.626 40.5208 750.293 40.6989C749.963 40.8731 749.702 41.1155 749.509 41.4261C749.319 41.733 749.224 42.0833 749.224 42.4773V48H747.884ZM757.116 48.1818C756.329 48.1818 755.637 47.9943 755.043 47.6193C754.452 47.2443 753.99 46.7197 753.656 46.0455C753.327 45.3712 753.162 44.5833 753.162 43.6818C753.162 42.7727 753.327 41.9792 753.656 41.3011C753.99 40.6231 754.452 40.0966 755.043 39.7216C755.637 39.3466 756.329 39.1591 757.116 39.1591C757.904 39.1591 758.594 39.3466 759.185 39.7216C759.779 40.0966 760.241 40.6231 760.571 41.3011C760.904 41.9792 761.071 42.7727 761.071 43.6818C761.071 44.5833 760.904 45.3712 760.571 46.0455C760.241 46.7197 759.779 47.2443 759.185 47.6193C758.594 47.9943 757.904 48.1818 757.116 48.1818ZM757.116 46.9773C757.715 46.9773 758.207 46.8239 758.594 46.517C758.98 46.2102 759.266 45.8068 759.452 45.3068C759.637 44.8068 759.73 44.2652 759.73 43.6818C759.73 43.0985 759.637 42.5549 759.452 42.0511C759.266 41.5473 758.98 41.1402 758.594 40.8295C758.207 40.5189 757.715 40.3636 757.116 40.3636C756.518 40.3636 756.026 40.5189 755.639 40.8295C755.253 41.1402 754.967 41.5473 754.781 42.0511C754.596 42.5549 754.503 43.0985 754.503 43.6818C754.503 44.2652 754.596 44.8068 754.781 45.3068C754.967 45.8068 755.253 46.2102 755.639 46.517C756.026 46.8239 756.518 46.9773 757.116 46.9773ZM766.413 48.1818C765.686 48.1818 765.044 47.9981 764.487 47.6307C763.93 47.2595 763.495 46.7367 763.18 46.0625C762.866 45.3845 762.709 44.5833 762.709 43.6591C762.709 42.7424 762.866 41.947 763.18 41.2727C763.495 40.5985 763.932 40.0777 764.493 39.7102C765.054 39.3428 765.701 39.1591 766.436 39.1591C767.004 39.1591 767.453 39.2538 767.783 39.4432C768.116 39.6288 768.37 39.8409 768.544 40.0795C768.722 40.3144 768.86 40.5076 768.959 40.6591H769.072V36.3636H770.413V48H769.118V46.6591H768.959C768.86 46.8182 768.72 47.0189 768.538 47.2614C768.357 47.5 768.097 47.714 767.76 47.9034C767.423 48.089 766.974 48.1818 766.413 48.1818ZM766.595 46.9773C767.133 46.9773 767.588 46.8371 767.959 46.5568C768.33 46.2727 768.612 45.8807 768.805 45.3807C768.999 44.8769 769.095 44.2955 769.095 43.6364C769.095 42.9848 769 42.4148 768.811 41.9261C768.622 41.4337 768.341 41.0511 767.97 40.7784C767.599 40.5019 767.141 40.3636 766.595 40.3636C766.027 40.3636 765.554 40.5095 765.175 40.8011C764.8 41.089 764.518 41.4811 764.328 41.9773C764.143 42.4697 764.05 43.0227 764.05 43.6364C764.05 44.2576 764.144 44.822 764.334 45.3295C764.527 45.8333 764.811 46.2348 765.186 46.5341C765.565 46.8295 766.035 46.9773 766.595 46.9773ZM778.555 44.4318V39.2727H779.896V48H778.555V46.5227H778.464C778.26 46.9659 777.942 47.3428 777.51 47.6534C777.078 47.9602 776.533 48.1136 775.874 48.1136C775.328 48.1136 774.843 47.9943 774.419 47.7557C773.995 47.5133 773.661 47.1496 773.419 46.6648C773.177 46.1761 773.055 45.5606 773.055 44.8182V39.2727H774.396V44.7273C774.396 45.3636 774.574 45.8712 774.93 46.25C775.29 46.6288 775.749 46.8182 776.305 46.8182C776.639 46.8182 776.978 46.733 777.322 46.5625C777.671 46.392 777.963 46.1307 778.197 45.7784C778.436 45.4261 778.555 44.9773 778.555 44.4318ZM785.898 48.1818C785.08 48.1818 784.375 47.9886 783.784 47.6023C783.193 47.2159 782.739 46.6837 782.42 46.0057C782.102 45.3277 781.943 44.553 781.943 43.6818C781.943 42.7955 782.106 42.0133 782.432 41.3352C782.761 40.6534 783.22 40.1212 783.807 39.7386C784.398 39.3523 785.087 39.1591 785.875 39.1591C786.489 39.1591 787.042 39.2727 787.534 39.5C788.027 39.7273 788.43 40.0455 788.744 40.4545C789.059 40.8636 789.254 41.3409 789.33 41.8864H787.989C787.886 41.4886 787.659 41.1364 787.307 40.8295C786.958 40.5189 786.489 40.3636 785.898 40.3636C785.375 40.3636 784.917 40.5 784.523 40.7727C784.133 41.0417 783.828 41.4223 783.608 41.9148C783.392 42.4034 783.284 42.9773 783.284 43.6364C783.284 44.3106 783.39 44.8977 783.602 45.3977C783.818 45.8977 784.121 46.286 784.511 46.5625C784.905 46.839 785.367 46.9773 785.898 46.9773C786.246 46.9773 786.562 46.9167 786.847 46.7955C787.131 46.6742 787.371 46.5 787.568 46.2727C787.765 46.0455 787.905 45.7727 787.989 45.4545H789.33C789.254 45.9697 789.066 46.4337 788.767 46.8466C788.472 47.2557 788.08 47.5814 787.591 47.8239C787.106 48.0625 786.542 48.1818 785.898 48.1818ZM795.085 39.2727V40.4091H790.562V39.2727H795.085ZM791.881 37.1818H793.222V45.5C793.222 45.8788 793.277 46.1629 793.386 46.3523C793.5 46.5379 793.644 46.6629 793.818 46.7273C793.996 46.7879 794.184 46.8182 794.381 46.8182C794.528 46.8182 794.65 46.8106 794.744 46.7955C794.839 46.7765 794.915 46.7614 794.972 46.75L795.244 47.9545C795.153 47.9886 795.027 48.0227 794.864 48.0568C794.701 48.0947 794.494 48.1136 794.244 48.1136C793.866 48.1136 793.494 48.0322 793.131 47.8693C792.771 47.7064 792.472 47.4583 792.233 47.125C791.998 46.7917 791.881 46.3712 791.881 45.8636V37.1818Z" fill="#18191F"/>
<path d="M847.273 37.6136V36.3636H856V37.6136H852.341V48H850.932V37.6136H847.273ZM860.386 48.1818C859.545 48.1818 858.82 47.9962 858.21 47.625C857.604 47.25 857.136 46.7273 856.807 46.0568C856.481 45.3826 856.318 44.5985 856.318 43.7045C856.318 42.8106 856.481 42.0227 856.807 41.3409C857.136 40.6553 857.595 40.1212 858.182 39.7386C858.773 39.3523 859.462 39.1591 860.25 39.1591C860.705 39.1591 861.153 39.2348 861.597 39.3864C862.04 39.5379 862.443 39.7841 862.807 40.125C863.17 40.4621 863.46 40.9091 863.676 41.4659C863.892 42.0227 864 42.7083 864 43.5227V44.0909H857.273V42.9318H862.636C862.636 42.4394 862.538 42 862.341 41.6136C862.148 41.2273 861.871 40.9223 861.511 40.6989C861.155 40.4754 860.735 40.3636 860.25 40.3636C859.716 40.3636 859.254 40.4962 858.864 40.7614C858.477 41.0227 858.18 41.3636 857.972 41.7841C857.763 42.2045 857.659 42.6553 857.659 43.1364V43.9091C857.659 44.5682 857.773 45.1269 858 45.5852C858.231 46.0398 858.551 46.3864 858.96 46.625C859.369 46.8598 859.845 46.9773 860.386 46.9773C860.739 46.9773 861.057 46.928 861.341 46.8295C861.629 46.7273 861.877 46.5758 862.085 46.375C862.294 46.1705 862.455 45.9167 862.568 45.6136L863.864 45.9773C863.727 46.4167 863.498 46.803 863.176 47.1364C862.854 47.4659 862.456 47.7235 861.983 47.9091C861.509 48.0909 860.977 48.1818 860.386 48.1818ZM872.222 41.2273L871.017 41.5682C870.941 41.3674 870.83 41.1723 870.682 40.983C870.538 40.7898 870.341 40.6307 870.091 40.5057C869.841 40.3807 869.521 40.3182 869.131 40.3182C868.597 40.3182 868.152 40.4413 867.795 40.6875C867.443 40.9299 867.267 41.2386 867.267 41.6136C867.267 41.947 867.388 42.2102 867.631 42.4034C867.873 42.5966 868.252 42.7576 868.767 42.8864L870.062 43.2045C870.843 43.3939 871.424 43.6837 871.807 44.0739C872.189 44.4602 872.381 44.9583 872.381 45.5682C872.381 46.0682 872.237 46.5152 871.949 46.9091C871.665 47.303 871.267 47.6136 870.756 47.8409C870.244 48.0682 869.65 48.1818 868.972 48.1818C868.081 48.1818 867.345 47.9886 866.761 47.6023C866.178 47.2159 865.809 46.6515 865.653 45.9091L866.926 45.5909C867.047 46.0606 867.277 46.4129 867.614 46.6477C867.955 46.8826 868.4 47 868.949 47C869.574 47 870.07 46.8674 870.438 46.6023C870.809 46.3333 870.994 46.0114 870.994 45.6364C870.994 45.3333 870.888 45.0795 870.676 44.875C870.464 44.6667 870.138 44.5114 869.699 44.4091L868.244 44.0682C867.445 43.8788 866.858 43.5852 866.483 43.1875C866.112 42.786 865.926 42.2841 865.926 41.6818C865.926 41.1894 866.064 40.7538 866.341 40.375C866.621 39.9962 867.002 39.6989 867.483 39.483C867.968 39.267 868.517 39.1591 869.131 39.1591C869.994 39.1591 870.672 39.3485 871.165 39.7273C871.661 40.1061 872.013 40.6061 872.222 41.2273ZM878.195 39.2727V40.4091H873.672V39.2727H878.195ZM874.99 37.1818H876.331V45.5C876.331 45.8788 876.386 46.1629 876.496 46.3523C876.609 46.5379 876.753 46.6629 876.928 46.7273C877.106 46.7879 877.293 46.8182 877.49 46.8182C877.638 46.8182 877.759 46.8106 877.854 46.7955C877.948 46.7765 878.024 46.7614 878.081 46.75L878.354 47.9545C878.263 47.9886 878.136 48.0227 877.973 48.0568C877.81 48.0947 877.604 48.1136 877.354 48.1136C876.975 48.1136 876.604 48.0322 876.24 47.8693C875.88 47.7064 875.581 47.4583 875.342 47.125C875.107 46.7917 874.99 46.3712 874.99 45.8636V37.1818ZM880.212 48V39.2727H881.553V48H880.212ZM880.893 37.8182C880.632 37.8182 880.407 37.7292 880.217 37.5511C880.032 37.3731 879.939 37.1591 879.939 36.9091C879.939 36.6591 880.032 36.4451 880.217 36.267C880.407 36.089 880.632 36 880.893 36C881.155 36 881.378 36.089 881.564 36.267C881.753 36.4451 881.848 36.6591 881.848 36.9091C881.848 37.1591 881.753 37.3731 881.564 37.5511C881.378 37.7292 881.155 37.8182 880.893 37.8182ZM884.009 48V39.2727H885.304V40.6364H885.418C885.599 40.1705 885.893 39.8087 886.298 39.5511C886.704 39.2898 887.19 39.1591 887.759 39.1591C888.334 39.1591 888.813 39.2898 889.196 39.5511C889.582 39.8087 889.884 40.1705 890.099 40.6364H890.19C890.414 40.1856 890.749 39.8277 891.196 39.5625C891.643 39.2936 892.179 39.1591 892.804 39.1591C893.584 39.1591 894.223 39.4034 894.719 39.892C895.215 40.3769 895.463 41.1326 895.463 42.1591V48H894.122V42.1591C894.122 41.5152 893.946 41.0549 893.594 40.7784C893.241 40.5019 892.827 40.3636 892.349 40.3636C891.736 40.3636 891.26 40.5492 890.923 40.9205C890.586 41.2879 890.418 41.7538 890.418 42.3182V48H889.054V42.0227C889.054 41.5265 888.893 41.1269 888.571 40.8239C888.249 40.517 887.834 40.3636 887.327 40.3636C886.978 40.3636 886.652 40.4564 886.349 40.642C886.05 40.8277 885.808 41.0852 885.622 41.4148C885.44 41.7405 885.349 42.1174 885.349 42.5455V48H884.009ZM901.46 48.1818C900.672 48.1818 899.981 47.9943 899.386 47.6193C898.795 47.2443 898.333 46.7197 898 46.0455C897.67 45.3712 897.506 44.5833 897.506 43.6818C897.506 42.7727 897.67 41.9792 898 41.3011C898.333 40.6231 898.795 40.0966 899.386 39.7216C899.981 39.3466 900.672 39.1591 901.46 39.1591C902.248 39.1591 902.938 39.3466 903.528 39.7216C904.123 40.0966 904.585 40.6231 904.915 41.3011C905.248 41.9792 905.415 42.7727 905.415 43.6818C905.415 44.5833 905.248 45.3712 904.915 46.0455C904.585 46.7197 904.123 47.2443 903.528 47.6193C902.938 47.9943 902.248 48.1818 901.46 48.1818ZM901.46 46.9773C902.059 46.9773 902.551 46.8239 902.938 46.517C903.324 46.2102 903.61 45.8068 903.795 45.3068C903.981 44.8068 904.074 44.2652 904.074 43.6818C904.074 43.0985 903.981 42.5549 903.795 42.0511C903.61 41.5473 903.324 41.1402 902.938 40.8295C902.551 40.5189 902.059 40.3636 901.46 40.3636C900.862 40.3636 900.369 40.5189 899.983 40.8295C899.597 41.1402 899.311 41.5473 899.125 42.0511C898.939 42.5549 898.847 43.0985 898.847 43.6818C898.847 44.2652 898.939 44.8068 899.125 45.3068C899.311 45.8068 899.597 46.2102 899.983 46.517C900.369 46.8239 900.862 46.9773 901.46 46.9773ZM908.803 42.75V48H907.462V39.2727H908.757V40.6364H908.871C909.075 40.1932 909.386 39.8371 909.803 39.5682C910.219 39.2955 910.757 39.1591 911.416 39.1591C912.007 39.1591 912.524 39.2803 912.967 39.5227C913.411 39.7614 913.755 40.125 914.001 40.6136C914.248 41.0985 914.371 41.7121 914.371 42.4545V48H913.03V42.5455C913.03 41.8598 912.852 41.3258 912.496 40.9432C912.14 40.5568 911.651 40.3636 911.03 40.3636C910.602 40.3636 910.219 40.4564 909.882 40.642C909.549 40.8277 909.286 41.0985 909.092 41.4545C908.899 41.8106 908.803 42.2424 908.803 42.75ZM916.821 48V39.2727H918.162V48H916.821ZM917.503 37.8182C917.241 37.8182 917.016 37.7292 916.827 37.5511C916.641 37.3731 916.548 37.1591 916.548 36.9091C916.548 36.6591 916.641 36.4451 916.827 36.267C917.016 36.089 917.241 36 917.503 36C917.764 36 917.988 36.089 918.173 36.267C918.363 36.4451 918.457 36.6591 918.457 36.9091C918.457 37.1591 918.363 37.3731 918.173 37.5511C917.988 37.7292 917.764 37.8182 917.503 37.8182ZM923.186 48.2045C922.633 48.2045 922.131 48.1004 921.68 47.892C921.23 47.6799 920.872 47.375 920.607 46.9773C920.341 46.5758 920.209 46.0909 920.209 45.5227C920.209 45.0227 920.307 44.6174 920.504 44.3068C920.701 43.9924 920.964 43.7462 921.294 43.5682C921.624 43.3902 921.987 43.2576 922.385 43.1705C922.786 43.0795 923.19 43.0076 923.595 42.9545C924.125 42.8864 924.555 42.8352 924.885 42.8011C925.218 42.7633 925.461 42.7008 925.612 42.6136C925.768 42.5265 925.845 42.375 925.845 42.1591V42.1136C925.845 41.553 925.692 41.1174 925.385 40.8068C925.082 40.4962 924.622 40.3409 924.004 40.3409C923.364 40.3409 922.862 40.4811 922.499 40.7614C922.135 41.0417 921.879 41.3409 921.732 41.6591L920.459 41.2045C920.686 40.6742 920.989 40.2614 921.368 39.9659C921.75 39.6667 922.167 39.4583 922.618 39.3409C923.072 39.2197 923.519 39.1591 923.959 39.1591C924.239 39.1591 924.561 39.1932 924.925 39.2614C925.292 39.3258 925.646 39.4602 925.987 39.6648C926.332 39.8693 926.618 40.178 926.845 40.5909C927.072 41.0038 927.186 41.5568 927.186 42.25V48H925.845V46.8182H925.777C925.686 47.0076 925.535 47.2102 925.322 47.4261C925.11 47.642 924.828 47.8258 924.476 47.9773C924.124 48.1288 923.694 48.2045 923.186 48.2045ZM923.391 47C923.921 47 924.368 46.8958 924.732 46.6875C925.099 46.4792 925.375 46.2102 925.561 45.8807C925.75 45.5511 925.845 45.2045 925.845 44.8409V43.6136C925.788 43.6818 925.663 43.7443 925.47 43.8011C925.281 43.8542 925.061 43.9015 924.811 43.9432C924.565 43.9811 924.324 44.0152 924.089 44.0455C923.858 44.072 923.671 44.0947 923.527 44.1136C923.179 44.1591 922.853 44.233 922.55 44.3352C922.25 44.4337 922.008 44.5833 921.822 44.7841C921.641 44.9811 921.55 45.25 921.55 45.5909C921.55 46.0568 921.722 46.4091 922.067 46.6477C922.415 46.8826 922.857 47 923.391 47ZM930.974 36.3636V48H929.634V36.3636H930.974Z" fill="#18191F"/>
<path d="M983.909 48V36.3636H990.886V37.6136H985.318V41.5455H990.364V42.7955H985.318V48H983.909ZM992.324 48H990.847L995.119 36.3636H996.574L1000.85 48H999.369L995.892 38.2045H995.801L992.324 48ZM992.869 43.4545H998.824V44.7045H992.869V43.4545ZM1006.34 44.3636H1007.88L1009.18 46.0682L1009.52 46.5227L1011.45 49.0909H1009.91L1008.63 47.3864L1008.32 46.9545L1006.34 44.3636ZM1011.93 42.1818C1011.93 43.4091 1011.71 44.4697 1011.27 45.3636C1010.82 46.2576 1010.21 46.947 1009.44 47.4318C1008.67 47.9167 1007.79 48.1591 1006.79 48.1591C1005.8 48.1591 1004.92 47.9167 1004.15 47.4318C1003.37 46.947 1002.77 46.2576 1002.32 45.3636C1001.88 44.4697 1001.66 43.4091 1001.66 42.1818C1001.66 40.9545 1001.88 39.8939 1002.32 39C1002.77 38.1061 1003.37 37.4167 1004.15 36.9318C1004.92 36.447 1005.8 36.2045 1006.79 36.2045C1007.79 36.2045 1008.67 36.447 1009.44 36.9318C1010.21 37.4167 1010.82 38.1061 1011.27 39C1011.71 39.8939 1011.93 40.9545 1011.93 42.1818ZM1010.57 42.1818C1010.57 41.1742 1010.4 40.3239 1010.06 39.6307C1009.73 38.9375 1009.28 38.4129 1008.7 38.0568C1008.13 37.7008 1007.5 37.5227 1006.79 37.5227C1006.09 37.5227 1005.45 37.7008 1004.88 38.0568C1004.31 38.4129 1003.86 38.9375 1003.52 39.6307C1003.19 40.3239 1003.02 41.1742 1003.02 42.1818C1003.02 43.1894 1003.19 44.0398 1003.52 44.733C1003.86 45.4261 1004.31 45.9508 1004.88 46.3068C1005.45 46.6629 1006.09 46.8409 1006.79 46.8409C1007.5 46.8409 1008.13 46.6629 1008.7 46.3068C1009.28 45.9508 1009.73 45.4261 1010.06 44.733C1010.4 44.0398 1010.57 43.1894 1010.57 42.1818Z" fill="#18191F"/>
</g>
<path d="M123.786 43.1341L118.395 52.3669L113.004 43.1341H123.786ZM125.231 42.3088H111.554L118.395 54L125.231 42.3088Z" fill="#263238"/>
<path d="M133.159 31.6504L138.55 40.8833H127.768L133.159 31.6504ZM133.159 30L126.318 41.6912H140L133.159 30Z" fill="#263238"/>
<path d="M105 30L110.736 40.3409L117.004 30.2597L105 30Z" fill="#4CAF4F"/>
<path d="M118.396 30.9058L124.412 41.1889H112.367L118.396 30.9058Z" fill="#4CAF4F"/>
<path d="M125.961 43.4341L131.984 54H119.653L125.774 43.4341H125.961Z" fill="#4CAF4F"/>
<path d="M127.265 42.7935L133.159 53.1978L139.135 42.7935H127.265Z" fill="#4CAF4F"/>
<path d="M165.033 31.6689V52.0326H161.314L152.455 39.2158H152.305V52.0326H148V31.6689H151.778L160.568 44.4758H160.747V31.6689H165.033Z" fill="#263238"/>
<path d="M175.471 52.3309C173.9 52.3309 172.547 52.0127 171.414 51.3763C170.287 50.7333 169.418 49.8252 168.809 48.6519C168.199 47.472 167.894 46.0766 167.894 44.4658C167.894 42.8948 168.199 41.516 168.809 40.3295C169.418 39.1429 170.277 38.2182 171.384 37.5553C172.498 36.8924 173.803 36.561 175.301 36.561C176.309 36.561 177.247 36.7234 178.115 37.0482C178.99 37.3664 179.753 37.847 180.402 38.49C181.059 39.133 181.569 39.9417 181.934 40.9161C182.298 41.8839 182.48 43.0174 182.48 44.3167V45.48H169.584V42.855H178.493C178.493 42.2452 178.361 41.7049 178.096 41.2343C177.83 40.7636 177.462 40.3957 176.992 40.1306C176.528 39.8588 175.988 39.7229 175.371 39.7229C174.728 39.7229 174.158 39.8721 173.661 40.1704C173.17 40.462 172.786 40.8564 172.507 41.3536C172.229 41.8441 172.087 42.391 172.08 42.9942V45.49C172.08 46.2457 172.219 46.8986 172.498 47.4488C172.783 47.999 173.184 48.4232 173.701 48.7215C174.218 49.0198 174.831 49.1689 175.54 49.1689C176.011 49.1689 176.442 49.1027 176.833 48.9701C177.224 48.8375 177.559 48.6386 177.837 48.3735C178.115 48.1083 178.328 47.7835 178.473 47.3991L182.391 47.6576C182.192 48.5989 181.784 49.4208 181.168 50.1235C180.558 50.8195 179.769 51.3631 178.801 51.7542C177.84 52.1386 176.73 52.3309 175.471 52.3309Z" fill="#263238"/>
<path d="M188.511 36.7599L191.315 42.0993L194.189 36.7599H198.534L194.109 44.3962L198.653 52.0326H194.328L191.315 46.7528L188.352 52.0326H183.977L188.511 44.3962L184.136 36.7599H188.511Z" fill="#263238"/>
<path d="M207.403 52.3309C205.839 52.3309 204.493 51.9994 203.366 51.3366C202.246 50.6671 201.384 49.739 200.781 48.5525C200.184 47.3659 199.886 46.0004 199.886 44.4559C199.886 42.8915 200.188 41.5193 200.791 40.3394C201.401 39.1528 202.266 38.2281 203.386 37.5653C204.506 36.8957 205.839 36.561 207.383 36.561C208.716 36.561 209.882 36.8029 210.883 37.2868C211.884 37.7707 212.676 38.4502 213.26 39.3252C213.843 40.2002 214.164 41.2277 214.224 42.4076H210.227C210.114 41.6453 209.816 41.0321 209.332 40.5681C208.855 40.0974 208.228 39.8621 207.453 39.8621C206.797 39.8621 206.223 40.0411 205.733 40.3991C205.249 40.7504 204.871 41.2641 204.599 41.9403C204.327 42.6164 204.191 43.435 204.191 44.3962C204.191 45.3707 204.324 46.1992 204.589 46.882C204.861 47.5648 205.242 48.0851 205.733 48.4431C206.223 48.801 206.797 48.98 207.453 48.98C207.937 48.98 208.371 48.8806 208.755 48.6817C209.146 48.4829 209.468 48.1945 209.72 47.8167C209.978 47.4322 210.147 46.9715 210.227 46.4346H214.224C214.158 47.6012 213.84 48.6287 213.27 49.517C212.706 50.3986 211.927 51.088 210.933 51.5851C209.939 52.0823 208.762 52.3309 207.403 52.3309Z" fill="#263238"/>
<path d="M223.896 52.3309C222.325 52.3309 220.973 52.0127 219.839 51.3763C218.713 50.7333 217.844 49.8252 217.234 48.6519C216.625 47.472 216.32 46.0766 216.32 44.4658C216.32 42.8948 216.625 41.516 217.234 40.3295C217.844 39.1429 218.703 38.2182 219.81 37.5553C220.923 36.8924 222.229 36.561 223.727 36.561C224.735 36.561 225.673 36.7234 226.541 37.0482C227.416 37.3664 228.179 37.847 228.828 38.49C229.484 39.133 229.995 39.9417 230.359 40.9161C230.724 41.8839 230.906 43.0174 230.906 44.3167V45.48H218.01V42.855H226.919C226.919 42.2452 226.786 41.7049 226.521 41.2343C226.256 40.7636 225.888 40.3957 225.418 40.1306C224.954 39.8588 224.413 39.7229 223.797 39.7229C223.154 39.7229 222.584 39.8721 222.087 40.1704C221.596 40.462 221.212 40.8564 220.933 41.3536C220.655 41.8441 220.512 42.391 220.506 42.9942V45.49C220.506 46.2457 220.645 46.8986 220.923 47.4488C221.208 47.999 221.609 48.4232 222.126 48.7215C222.643 49.0198 223.257 49.1689 223.966 49.1689C224.437 49.1689 224.867 49.1027 225.259 48.9701C225.65 48.8375 225.984 48.6386 226.263 48.3735C226.541 48.1083 226.753 47.7835 226.899 47.3991L230.817 47.6576C230.618 48.5989 230.21 49.4208 229.594 50.1235C228.984 50.8195 228.195 51.3631 227.227 51.7542C226.266 52.1386 225.156 52.3309 223.896 52.3309Z" fill="#263238"/>
<path d="M237.906 43.203V52.0326H233.67V36.7599H237.707V39.4545H237.886C238.224 38.5662 238.791 37.8635 239.587 37.3465C240.382 36.8228 241.347 36.561 242.48 36.561C243.541 36.561 244.465 36.793 245.254 37.257C246.043 37.721 246.656 38.3839 247.094 39.2457C247.531 40.1008 247.75 41.1216 247.75 42.3082V52.0326H243.514V43.0638C243.521 42.1292 243.282 41.4 242.798 40.8763C242.314 40.346 241.648 40.0809 240.8 40.0809C240.23 40.0809 239.726 40.2035 239.288 40.4488C238.857 40.694 238.519 41.052 238.274 41.5226C238.036 41.9867 237.913 42.5468 237.906 43.203Z" fill="#263238"/>
<path d="M259.212 36.7599V39.9417H250.015V36.7599H259.212ZM252.103 33.1008H256.338V47.3394C256.338 47.7305 256.398 48.0354 256.517 48.2542C256.637 48.4663 256.802 48.6154 257.015 48.7016C257.233 48.7878 257.485 48.8309 257.77 48.8309C257.969 48.8309 258.168 48.8143 258.367 48.7812C258.566 48.7414 258.718 48.7116 258.824 48.6917L259.49 51.8437C259.278 51.91 258.98 51.9862 258.596 52.0724C258.211 52.1652 257.744 52.2215 257.194 52.2414C256.173 52.2812 255.278 52.1453 254.509 51.8337C253.747 51.5222 253.153 51.0383 252.729 50.382C252.305 49.7258 252.096 48.8972 252.103 47.8962V33.1008Z" fill="#263238"/>
<g clip-path="url(#clip1_213_957)">
<rect x="1138" y="22" width="77" height="40" rx="6" fill="#F5F7FA"/>
<path d="M1159.2 47V36.8182H1160.74V45.6776H1165.35V47H1159.2ZM1170.2 47.1541C1169.49 47.1541 1168.86 46.9901 1168.33 46.6619C1167.79 46.3338 1167.38 45.8748 1167.09 45.2848C1166.79 44.6948 1166.64 44.0054 1166.64 43.2166C1166.64 42.4245 1166.79 41.7318 1167.09 41.1385C1167.38 40.5452 1167.79 40.0845 1168.33 39.7564C1168.86 39.4283 1169.49 39.2642 1170.2 39.2642C1170.92 39.2642 1171.54 39.4283 1172.08 39.7564C1172.61 40.0845 1173.02 40.5452 1173.32 41.1385C1173.61 41.7318 1173.76 42.4245 1173.76 43.2166C1173.76 44.0054 1173.61 44.6948 1173.32 45.2848C1173.02 45.8748 1172.61 46.3338 1172.08 46.6619C1171.54 46.9901 1170.92 47.1541 1170.2 47.1541ZM1170.21 45.9062C1170.67 45.9062 1171.06 45.7836 1171.36 45.5384C1171.67 45.2931 1171.89 44.9666 1172.04 44.5589C1172.19 44.1513 1172.26 43.7022 1172.26 43.2116C1172.26 42.7244 1172.19 42.277 1172.04 41.8693C1171.89 41.4583 1171.67 41.1286 1171.36 40.88C1171.06 40.6314 1170.67 40.5071 1170.21 40.5071C1169.74 40.5071 1169.35 40.6314 1169.04 40.88C1168.74 41.1286 1168.51 41.4583 1168.36 41.8693C1168.22 42.277 1168.14 42.7244 1168.14 43.2116C1168.14 43.7022 1168.22 44.1513 1168.36 44.5589C1168.51 44.9666 1168.74 45.2931 1169.04 45.5384C1169.35 45.7836 1169.74 45.9062 1170.21 45.9062ZM1178.62 50.0227C1178.02 50.0227 1177.49 49.9432 1177.06 49.7841C1176.62 49.625 1176.27 49.4145 1175.99 49.1527C1175.72 48.8909 1175.51 48.6042 1175.38 48.2926L1176.65 47.7656C1176.74 47.9115 1176.86 48.0656 1177.01 48.228C1177.16 48.3937 1177.37 48.5346 1177.63 48.6506C1177.89 48.7666 1178.23 48.8246 1178.64 48.8246C1179.2 48.8246 1179.67 48.687 1180.03 48.4119C1180.4 48.1402 1180.59 47.706 1180.59 47.1094V45.608H1180.49C1180.4 45.7704 1180.27 45.951 1180.1 46.1499C1179.94 46.3487 1179.71 46.5211 1179.42 46.6669C1179.13 46.8127 1178.75 46.8857 1178.28 46.8857C1177.68 46.8857 1177.13 46.7448 1176.65 46.4631C1176.17 46.178 1175.79 45.7588 1175.51 45.2053C1175.23 44.6484 1175.09 43.964 1175.09 43.152C1175.09 42.34 1175.23 41.6439 1175.5 41.0639C1175.78 40.4839 1176.16 40.0398 1176.64 39.7315C1177.13 39.42 1177.68 39.2642 1178.29 39.2642C1178.76 39.2642 1179.15 39.3438 1179.44 39.5028C1179.73 39.6586 1179.96 39.8409 1180.12 40.0497C1180.29 40.2585 1180.41 40.4425 1180.5 40.6016H1180.61V39.3636H1182.07V47.169C1182.07 47.8253 1181.92 48.3639 1181.61 48.7848C1181.31 49.2057 1180.89 49.5173 1180.37 49.7195C1179.86 49.9216 1179.27 50.0227 1178.62 50.0227ZM1178.61 45.6527C1179.04 45.6527 1179.4 45.5533 1179.69 45.3544C1179.99 45.1522 1180.22 44.8639 1180.37 44.4893C1180.52 44.1115 1180.6 43.6591 1180.6 43.1321C1180.6 42.6184 1180.53 42.166 1180.37 41.7749C1180.22 41.3838 1180 41.0788 1179.7 40.8601C1179.41 40.638 1179.04 40.527 1178.61 40.527C1178.16 40.527 1177.79 40.643 1177.49 40.875C1177.19 41.1037 1176.97 41.4152 1176.81 41.8097C1176.66 42.2041 1176.59 42.6449 1176.59 43.1321C1176.59 43.6326 1176.67 44.0717 1176.82 44.4496C1176.97 44.8274 1177.2 45.1224 1177.49 45.3345C1177.8 45.5466 1178.17 45.6527 1178.61 45.6527ZM1184.06 47V39.3636H1185.55V47H1184.06ZM1184.81 38.1854C1184.55 38.1854 1184.33 38.0992 1184.15 37.9268C1183.96 37.7512 1183.87 37.5424 1183.87 37.3004C1183.87 37.0552 1183.96 36.8464 1184.15 36.674C1184.33 36.4983 1184.55 36.4105 1184.81 36.4105C1185.07 36.4105 1185.29 36.4983 1185.47 36.674C1185.66 36.8464 1185.75 37.0552 1185.75 37.3004C1185.75 37.5424 1185.66 37.7512 1185.47 37.9268C1185.29 38.0992 1185.07 38.1854 1184.81 38.1854ZM1189.03 42.4659V47H1187.55V39.3636H1188.97V40.6065H1189.07C1189.25 40.2022 1189.52 39.8774 1189.89 39.6321C1190.27 39.3868 1190.75 39.2642 1191.32 39.2642C1191.84 39.2642 1192.3 39.3736 1192.69 39.5923C1193.08 39.8078 1193.38 40.1293 1193.6 40.5568C1193.81 40.9844 1193.92 41.513 1193.92 42.1428V47H1192.44V42.3217C1192.44 41.7682 1192.29 41.3357 1192 41.0241C1191.71 40.7093 1191.32 40.5518 1190.81 40.5518C1190.47 40.5518 1190.16 40.6264 1189.89 40.7756C1189.63 40.9247 1189.42 41.1435 1189.26 41.4318C1189.11 41.7169 1189.03 42.0616 1189.03 42.4659Z" fill="#4CAF4F"/>
<rect x="1229" y="22" width="91" height="40" rx="6" fill="#4CAF4F"/>
<path d="M1256.08 39.4929H1257.57C1257.52 37.8622 1256.08 36.679 1254.01 36.679C1251.97 36.679 1250.4 37.8473 1250.4 39.6023C1250.4 41.0192 1251.42 41.8494 1253.05 42.2919L1254.25 42.62C1255.34 42.9084 1256.18 43.2663 1256.18 44.1712C1256.18 45.1655 1255.23 45.8217 1253.93 45.8217C1252.74 45.8217 1251.76 45.2947 1251.67 44.1861H1250.13C1250.23 46.0305 1251.65 47.169 1253.94 47.169C1256.33 47.169 1257.7 45.9112 1257.7 44.1861C1257.7 42.3516 1256.07 41.6406 1254.78 41.3224L1253.78 41.0639C1252.99 40.8601 1251.93 40.4872 1251.93 39.5128C1251.93 38.6477 1252.72 38.0064 1253.98 38.0064C1255.14 38.0064 1255.97 38.5533 1256.08 39.4929ZM1259.42 47H1260.91V39.3636H1259.42V47ZM1260.17 38.1854C1260.68 38.1854 1261.11 37.7876 1261.11 37.3004C1261.11 36.8132 1260.68 36.4105 1260.17 36.4105C1259.65 36.4105 1259.23 36.8132 1259.23 37.3004C1259.23 37.7876 1259.65 38.1854 1260.17 38.1854ZM1266.11 50.0227C1268.05 50.0227 1269.55 49.1328 1269.55 47.169V39.3636H1268.1V40.6016H1267.99C1267.72 40.1293 1267.2 39.2642 1265.78 39.2642C1263.93 39.2642 1262.57 40.7209 1262.57 43.152C1262.57 45.5881 1263.96 46.8857 1265.77 46.8857C1267.17 46.8857 1267.71 46.0952 1267.98 45.608H1268.07V47.1094C1268.07 48.3075 1267.25 48.8246 1266.12 48.8246C1264.89 48.8246 1264.4 48.2031 1264.14 47.7656L1262.86 48.2926C1263.27 49.2273 1264.28 50.0227 1266.11 50.0227ZM1266.09 45.6527C1264.77 45.6527 1264.08 44.6335 1264.08 43.1321C1264.08 41.6655 1264.75 40.527 1266.09 40.527C1267.39 40.527 1268.09 41.5859 1268.09 43.1321C1268.09 44.7081 1267.38 45.6527 1266.09 45.6527ZM1273.03 42.4659C1273.03 41.2479 1273.78 40.5518 1274.81 40.5518C1275.82 40.5518 1276.44 41.2131 1276.44 42.3217V47H1277.92V42.1428C1277.92 40.2536 1276.88 39.2642 1275.32 39.2642C1274.17 39.2642 1273.42 39.7962 1273.07 40.6065H1272.97V39.3636H1271.55V47H1273.03V42.4659ZM1288.46 43.8331C1288.46 45.1307 1287.5 45.7472 1286.66 45.7472C1285.74 45.7472 1285.11 45.081 1285.11 44.0419V39.3636H1283.62V44.2209C1283.62 46.1151 1284.66 47.0994 1286.13 47.0994C1287.27 47.0994 1288.06 46.4929 1288.41 45.6776H1288.49V47H1289.95V39.3636H1288.46V43.8331ZM1291.95 49.8636H1293.43V45.8118H1293.52C1293.79 46.299 1294.34 47.1491 1295.73 47.1491C1297.58 47.1491 1298.92 45.6676 1298.92 43.1967C1298.92 40.7209 1297.56 39.2642 1295.72 39.2642C1294.3 39.2642 1293.79 40.1293 1293.52 40.6016H1293.4V39.3636H1291.95V49.8636ZM1293.4 43.1818C1293.4 41.5859 1294.1 40.527 1295.4 40.527C1296.74 40.527 1297.42 41.6655 1297.42 43.1818C1297.42 44.7131 1296.72 45.8814 1295.4 45.8814C1294.12 45.8814 1293.4 44.7876 1293.4 43.1818Z" fill="white"/>
</g>
<defs>
<clipPath id="clip0_213_957">
<rect width="588" height="24" fill="white" transform="translate(425.5 30)"/>
</clipPath>
<clipPath id="clip1_213_957">
<rect width="182" height="40" fill="white" transform="translate(1138 22)"/>
</clipPath>
</defs>
</svg>
